<svg width="513" height="513" viewBox="0 0 513 513" fill="none" xmlns="http://www.w3.org/2000/svg">
<path d="M0.0268555 100.246C0.0268555 45.018 44.7984 0.24649 100.027 0.24649H412.027C467.255 0.24649 512.027 45.018 512.027 100.246V412.246C512.027 467.475 467.255 512.246 412.027 512.246H100.027C44.7984 512.246 0.0268555 467.475 0.0268555 412.246V100.246Z" fill="#D9D9D9"/>
<path d="M468.527 256.246C468.527 373.607 373.387 468.746 256.027 468.746C138.666 468.746 43.5269 373.607 43.5269 256.246C43.5269 138.886 138.666 43.7465 256.027 43.7465C373.387 43.7465 468.527 138.886 468.527 256.246Z" fill="url(#paint0_linear_7_18)"/>
<path d="M368.908 209.178C378.308 199.778 378.308 184.578 368.908 175.278C359.508 165.978 344.308 165.878 335.008 175.278L224.008 286.278L177.008 239.278C167.608 229.878 152.408 229.878 143.108 239.278C133.808 248.678 133.708 263.878 143.108 273.178L207.108 337.178C216.508 346.578 231.708 346.578 241.008 337.178L368.908 209.178Z" fill="white"/>
<defs>
<linearGradient id="paint0_linear_7_18" x1="445.606" y1="107.006" x2="97.0198" y2="465.481" gradientUnits="userSpaceOnUse">
<stop stop-color="#07C8F9"/>
<stop offset="1" stop-color="#0D41E1"/>
</linearGradient>
</defs>
</svg>
